<?xml version="1.0" encoding="utf-8"?>
<!-- Generator: Adobe Illustrator 18.0.0, SVG Export Plug-In . SVG Version: 6.00 Build 0)  -->
<!DOCTYPE svg PUBLIC "-//W3C//DTD SVG 1.1//EN" "http://www.w3.org/Graphics/SVG/1.1/DTD/svg11.dtd">
<svg version="1.1" id="Layer_1" xmlns="http://www.w3.org/2000/svg" xmlns:xlink="http://www.w3.org/1999/xlink" x="0px" y="0px"
	 viewBox="0 1872 1728 1616" enable-background="new 0 1872 1728 1616" xml:space="preserve">
<path fill="#4F5B50" d="M514.9,2170.9l-164.2-164.2c-65.7-65.7-178-19-178,72.6v164.2c0,57,46.7,103.7,103.7,103.7h164.2
	C534,2347.2,580.6,2236.6,514.9,2170.9z"/>
<path fill="#4F5B50" d="M1558.7,2623.7v241.9h-3.5c0,190.1-134.8,345.6-302.4,345.6c-167.6,0-302.4-155.5-302.4-345.6h-3.5
	c1.7-6.9,1.7-12.1,1.7-19v-131.3c0-46.7-38-86.4-86.4-86.4c-46.7,0-86.4,38-86.4,86.4v131.3c0,6.9,0,13.8,1.7,19h0
	c0,190.1-134.8,345.6-302.4,345.6s-302.4-155.5-302.4-345.6v-241.9c0-57,46.7-103.7,103.7-103.7H1455
	C1512,2520,1558.7,2566.7,1558.7,2623.7z"/>
<path fill="#4F5B50" d="M710.2,3384l79.5-81.2c39.7-41.5,105.4-41.5,146.9-1.7l82.9,81.2L710.2,3384z"/>
</svg>
